<svg xmlns="http://www.w3.org/2000/svg" width="27" height="20" viewBox="0 0 26 20">
<path style="stroke:none;fill-rule:evenodd;fill:#bd3d44;fill-opacity:1" d="M0 0h37.05v1.54H0Zm0 3.078h37.05v1.54H0Zm0 3.074h37.05v1.543H0ZM0 9.23h37.05v1.54H0Zm0 3.079h37.05v1.539H0Zm0 3.074h37.05v1.539H0Zm0 3.078h37.05V20H0Zm0 0"/><path style="stroke:none;fill-rule:evenodd;fill:#fff;fill-opacity:1" d="M0 1.54h37.05v1.538H0Zm0 3.077h37.05v1.535H0Zm0 3.074h37.05v1.54H0Zm0 3.079h37.05v1.539H0Zm0 3.078h37.05v1.539H0Zm0 3.074h37.05v1.539H0Zm0 0"/><path style="stroke:none;fill-rule:evenodd;fill:#192f5d;fill-opacity:1" d="M0 0h14.82v10.77H0Zm0 0"/><path style="stroke:none;fill-rule:evenodd;fill:#fff;fill-opacity:1" d="m1.234.46.137.427h.434l-.352.261.137.43-.356-.266-.351.262.133-.426L.664.887h.441Zm2.473 0 .133.427h.437l-.355.261.133.43-.348-.266-.355.262.132-.426-.351-.261h.437Zm2.465 0 .14.427h.43l-.351.261.132.43-.351-.266-.352.262.133-.426-.355-.261h.437Zm2.473 0 .132.427h.442l-.356.261.137.43-.355-.266-.352.262.137-.426-.356-.261h.434Zm2.468 0 .137.427h.434l-.348.261.133.43-.356-.266-.351.262.133-.426-.348-.261h.433Zm2.473 0 .133.427h.437l-.355.261.14.43-.355-.266-.356.262.137-.426-.351-.261h.437ZM2.473 1.54l.132.425h.438l-.356.262.133.425-.343-.261-.356.261.125-.425-.34-.262h.434Zm2.468 0 .137.425h.434l-.356.262.137.425-.352-.261-.355.261.137-.425-.356-.262h.438Zm2.47 0 .132.425h.441l-.355.262.133.425-.352-.261-.351.261.132-.425-.351-.262h.433Zm2.468 0 .137.425h.433l-.351.262.136.425-.355-.261-.352.261.137-.425-.355-.262h.441Zm2.473 0 .132.425h.438l-.352.262.133.425-.351-.261-.356.261.133-.425-.348-.262h.434ZM1.234 2.612l.137.434h.434l-.352.262.137.425-.356-.265-.351.265.133-.43-.352-.261h.441Zm2.473 0 .133.43h.437l-.355.262.133.425-.348-.265-.355.265.132-.43-.351-.26h.437Zm2.465 0 .14.43h.43l-.351.262.132.425-.351-.265-.352.265.133-.43-.355-.26h.437Zm2.473 0 .132.43h.442l-.356.262L9 3.73l-.355-.265-.352.265.137-.43-.356-.26h.434Zm2.468 0 .137.43h.434l-.348.262.133.425-.356-.265-.351.265.133-.43-.348-.26h.433Zm2.473 0 .133.43h.437l-.355.262.14.425-.355-.265-.356.265.137-.43-.351-.26h.437ZM2.473 3.691l.132.426h.438l-.356.262.133.43-.347-.266-.356.262.133-.426-.348-.262h.434Zm2.468 0 .137.426h.434l-.356.262.137.43-.352-.266-.355.262.137-.426-.356-.262h.438Zm2.47 0 .132.426h.441l-.355.262.133.43-.352-.266-.351.262.132-.426-.351-.262h.433Zm2.468 0 .137.426h.433l-.347.262.132.43-.355-.266-.352.262.137-.426-.355-.262h.441Zm2.473 0 .132.426h.438l-.356.262.137.43-.351-.266-.356.262.133-.426-.348-.262h.434ZM1.234 4.77l.137.425h.434l-.352.262.137.43-.356-.266-.351.262.133-.426-.352-.262h.441Zm2.473 0 .133.425h.437l-.355.262.133.426-.348-.262-.355.262.132-.426-.351-.262h.437Zm2.465 0 .14.425h.43l-.351.262.132.43-.351-.266-.352.262.133-.426-.355-.262h.437Zm2.473 0 .132.425h.442l-.356.262.137.43-.355-.266-.352.262.137-.426-.356-.262h.434Zm2.468 0 .137.425h.434l-.348.262.133.43-.356-.266-.351.262.133-.426-.348-.262h.433Zm2.473 0 .133.425h.437l-.355.262.14.43-.355-.266-.356.262.137-.426-.351-.262h.437ZM2.473 5.848l.132.425h.438l-.356.262.133.426-.347-.266-.356.266.133-.43-.348-.261h.434Zm2.468 0 .137.425h.434l-.356.262.137.426-.352-.266-.355.266.137-.43-.356-.261h.438Zm2.47 0 .132.425h.441l-.355.262.133.426-.352-.266-.351.266.132-.43-.351-.261h.433Zm2.468 0 .137.425h.433l-.347.262.132.426-.355-.266-.352.266.137-.43-.355-.261h.441Zm2.473 0 .132.425h.438l-.356.262.137.426-.351-.266-.356.266.133-.43-.348-.261h.434ZM1.234 6.922l.137.43h.434l-.352.261.137.422-.356-.262-.351.262.133-.426-.352-.261h.441Zm2.473 0 .133.43h.437l-.355.261.137.422-.352-.262-.355.262.136-.426-.355-.261h.437Zm2.465 0 .14.43h.43l-.351.261.132.422-.351-.262-.352.262.133-.426-.355-.261h.437Zm2.473 0 .132.43h.442l-.356.261.137.422-.355-.262-.352.262.137-.426-.356-.261h.434Zm2.468 0 .137.43h.434l-.348.261.133.422-.356-.262-.351.262.133-.426-.348-.261h.433Zm2.473 0 .133.43h.437l-.355.261.14.422-.355-.262-.356.262.137-.426-.351-.261h.437ZM2.473 8l.132.426h.438l-.356.261.133.43-.347-.265-.356.261.133-.425-.348-.262h.434ZM4.94 8l.137.426h.434l-.356.261.137.43-.352-.265-.355.261.137-.425-.356-.262h.438Zm2.47 0 .132.426h.441l-.355.261.133.43-.352-.265-.351.261.132-.425-.351-.262h.433Zm2.468 0 .137.426h.433l-.347.261.132.43-.355-.265-.352.261.137-.425-.355-.262h.441Zm2.473 0 .132.426h.438l-.356.261.137.43-.351-.265-.356.261.133-.425-.348-.262h.434ZM1.234 9.078l.137.426h.434l-.352.262.137.425-.356-.261-.351.261.133-.43L.664 9.5h.441Zm2.473 0 .133.426h.437l-.355.262.137.425-.352-.261-.355.261.136-.43-.355-.261h.437Zm2.465 0 .14.426h.43l-.344.262.133.425-.355-.261-.348.261.133-.43-.356-.261h.438Zm2.473 0 .132.426h.442l-.356.262.137.425-.355-.261-.352.261.137-.43-.356-.261h.434Zm2.468 0 .137.426h.434l-.348.262.133.425-.356-.261-.351.261.133-.43-.348-.261h.433Zm2.473 0 .133.426h.437l-.355.262.14.425-.355-.261-.356.261.137-.43-.351-.261h.437Zm0 0"/>
</svg>